<svg width="110" height="110" viewBox="0 0 110 110" fill="none" xmlns="http://www.w3.org/2000/svg">
<path d="M22.3404 3.43518C19.5136 3.43518 17.1875 5.76131 17.1875 8.58814V63.5882C17.1875 65.8821 20.6283 65.8821 20.6283 63.5882V20.6295H89.3683V63.5882C89.3163 65.9318 92.8584 65.9318 92.8058 63.5882V8.58814C92.8058 5.76131 90.4831 3.43518 87.6562 3.43518H22.3404ZM22.3404 6.8761H87.6562C88.6382 6.8761 89.3683 7.60619 89.3683 8.58814V17.1886H20.6283V8.58814C20.6283 7.60619 21.3585 6.8761 22.3404 6.8761ZM25.7812 10.3103C24.832 10.3103 24.0625 11.0799 24.0625 12.0291C24.0625 12.9783 24.832 13.7476 25.7812 13.7476C26.7304 13.7476 27.5 12.9783 27.5 12.0291C27.5 11.0799 26.7304 10.3103 25.7812 10.3103ZM32.6562 10.3103C31.707 10.3103 30.9375 11.0799 30.9375 12.0291C30.9375 12.9783 31.707 13.7476 32.6562 13.7476C33.6055 13.7476 34.375 12.9783 34.375 12.0291C34.375 11.0799 33.6055 10.3103 32.6562 10.3103ZM39.5312 10.3103C38.582 10.3103 37.8125 11.0799 37.8125 12.0291C37.8125 12.9783 38.582 13.7476 39.5312 13.7476C40.4805 13.7476 41.25 12.9783 41.25 12.0291C41.25 11.0799 40.4805 10.3103 39.5312 10.3103ZM63.5065 10.3137C61.1859 10.4715 61.3443 13.8081 63.5871 13.7512H84.2187C86.4601 13.6992 86.4601 10.3634 84.2187 10.3137H63.5065ZM8.60047 13.7512C5.77364 13.7512 3.4375 16.074 3.4375 18.9008V80.7789C3.4375 83.6058 5.77364 85.9319 8.60047 85.9319H101.41C104.236 85.9319 106.562 83.6058 106.562 80.7789V18.9006C106.562 16.0738 104.236 13.751 101.41 13.751H97.9721C95.629 13.699 95.629 17.2405 97.9721 17.1886H101.41C102.392 17.1886 103.122 17.9187 103.122 18.9006V68.7511H6.875V18.9006C6.875 17.9187 7.61858 17.1886 8.60047 17.1886H12.0245C14.3676 17.2405 14.3676 13.699 12.0245 13.751L8.60047 13.7512ZM60.1764 27.4709C59.4208 27.4658 58.7506 27.955 58.5248 28.6762L48.2089 59.6102C47.4816 61.7856 50.7445 62.8765 51.4719 60.7012L61.7877 29.757C62.1768 28.6441 61.3553 27.4787 60.1764 27.4709ZM67.6489 37.4075L76.3769 44.6886L67.6489 51.9598C65.784 53.4198 68.0868 56.1748 69.8544 54.5984L80.1568 46.0079C80.9795 45.3208 80.9795 44.0566 80.1568 43.3695L69.8544 34.7657C69.5464 34.5019 69.1553 34.3557 68.6627 34.3563C67.038 34.4986 66.449 36.4368 67.6489 37.4079V37.4075ZM41.2064 34.3595C40.8193 34.3725 40.4478 34.5154 40.1523 34.7655L29.8398 43.3693C29.0171 44.0564 29.0171 45.3206 29.8398 46.0077L40.1523 54.5982C41.9259 56.2501 44.2945 53.4033 42.3477 51.9596L33.6197 44.6884L42.3477 37.4073C43.6177 36.3675 42.847 34.3093 41.2064 34.3593V34.3595ZM6.875 72.192H103.122V80.7789C103.122 81.7609 102.392 82.491 101.41 82.491H8.60047C7.61858 82.491 6.875 81.7609 6.875 80.7789V72.192ZM58.5315 75.6262L51.4786 75.6295C49.2877 75.8913 49.4349 78.995 51.5592 79.0536H58.4375C60.7979 79.2621 60.9944 75.6735 58.5315 75.6262H58.5315ZM45.3589 89.235C44.669 89.222 44.0372 89.6196 43.7543 90.2489C42.9266 92.0241 41.4438 94.0971 38.8834 96.2444H36.0937C33.2669 96.2444 30.9442 98.584 30.9442 101.411V104.835C30.9408 105.784 31.707 106.556 32.6562 106.56H77.3404C78.2948 106.564 79.0695 105.789 79.0658 104.835V101.411C79.0658 98.584 76.7297 96.2444 73.9029 96.2444H71.1166C68.5565 94.0972 67.0733 92.024 66.2457 90.2489C65.9547 89.6031 65.2978 89.2022 64.5908 89.2384C63.3629 89.3034 62.596 90.5953 63.1305 91.7026C63.8005 93.1396 64.8236 94.6811 66.2021 96.2444H43.7979C45.1763 94.6811 46.1994 93.1396 46.8695 91.7026C47.4152 90.5754 46.611 89.2617 45.3589 89.235ZM36.0937 99.6853H73.9029C74.8847 99.6853 75.6283 100.429 75.6283 101.411V103.123H34.3817V101.411C34.3817 100.429 35.1118 99.6853 36.0937 99.6853Z" fill="#545151"/>
</svg>
