<svg width="50" height="50" viewBox="0 0 50 50" fill="none" xmlns="http://www.w3.org/2000/svg">
<path d="M37.5 27.8247V37.0672H32.1425V28.4422C32.1425 26.2772 31.3675 24.7997 29.4275 24.7997C27.9475 24.7997 27.065 25.7947 26.6775 26.7597C26.5375 27.1047 26.5 27.5847 26.5 28.0647V37.0672H21.14C21.14 37.0672 21.2125 22.4622 21.14 20.9497H26.5V23.2322L26.465 23.2847H26.5V23.2347C27.2125 22.1347 28.4825 20.5697 31.33 20.5697C34.855 20.5697 37.5 22.8747 37.5 27.8247ZM15.5325 13.1772C13.7 13.1772 12.5 14.3822 12.5 15.9622C12.5 17.5122 13.665 18.7497 15.4625 18.7497H15.4975C17.3675 18.7497 18.53 17.5097 18.53 15.9622C18.495 14.3822 17.3675 13.1772 15.5325 13.1772ZM12.8175 37.0672H18.1775V20.9497H12.8175V37.0672Z" fill="black"/>
<path d="M10 5C8.67392 5 7.40215 5.52678 6.46447 6.46447C5.52678 7.40215 5 8.67392 5 10V40C5 41.3261 5.52678 42.5979 6.46447 43.5355C7.40215 44.4732 8.67392 45 10 45H40C41.3261 45 42.5979 44.4732 43.5355 43.5355C44.4732 42.5979 45 41.3261 45 40V10C45 8.67392 44.4732 7.40215 43.5355 6.46447C42.5979 5.52678 41.3261 5 40 5H10ZM10 0H40C42.6522 0 45.1957 1.05357 47.0711 2.92893C48.9464 4.8043 50 7.34784 50 10V40C50 42.6522 48.9464 45.1957 47.0711 47.0711C45.1957 48.9464 42.6522 50 40 50H10C7.34784 50 4.8043 48.9464 2.92893 47.0711C1.05357 45.1957 0 42.6522 0 40V10C0 7.34784 1.05357 4.8043 2.92893 2.92893C4.8043 1.05357 7.34784 0 10 0V0Z" fill="black"/>
</svg>
