<svg width="0" height="0" class="hidden">
  <symbol fill="none" xmlns="http://www.w3.org/2000/svg" viewBox="0 0 20 20" id="Whatsapp">
    <path fill-rule="evenodd" clip-rule="evenodd" d="M14.5823 11.985C14.3328 11.8608 13.1095 11.2625 12.8817 11.1792C12.6539 11.0967 12.4881 11.0558 12.3215 11.3042C12.1557 11.5508 11.6793 12.1092 11.5344 12.2742C11.3887 12.44 11.2438 12.46 10.9952 12.3367C10.7465 12.2117 9.94429 11.9508 8.99391 11.1075C8.25453 10.4509 7.75464 9.64002 7.60978 9.39169C7.46492 9.14419 7.59387 9.01002 7.71863 8.88669C7.83084 8.77585 7.96732 8.59752 8.09209 8.45335C8.21685 8.30835 8.25788 8.20502 8.34078 8.03919C8.42451 7.87419 8.38265 7.73002 8.31985 7.60585C8.25788 7.48169 7.7605 6.26252 7.55284 5.76669C7.35104 5.28419 7.14589 5.35003 6.99349 5.34169C6.8478 5.33503 6.682 5.33336 6.51621 5.33336C6.35041 5.33336 6.08079 5.39503 5.85303 5.64336C5.62444 5.89086 4.98219 6.49002 4.98219 7.70919C4.98219 8.92752 5.87313 10.105 5.99789 10.2709C6.12266 10.4359 7.75213 12.9375 10.2482 14.01C10.8428 14.265 11.3058 14.4175 11.6667 14.5308C12.2629 14.72 12.8055 14.6933 13.2342 14.6292C13.7115 14.5583 14.7063 14.03 14.9139 13.4517C15.1208 12.8733 15.1207 12.3775 15.0588 12.2742C14.9968 12.1708 14.831 12.1092 14.5815 11.985H14.5823ZM10.0423 18.1542H10.0389C8.55634 18.1544 7.10099 17.7578 5.8254 17.0058L5.52396 16.8275L2.39062 17.6458L3.22712 14.6058L3.03035 14.2942C2.20149 12.9811 1.76286 11.4615 1.76512 9.91085C1.76679 5.36919 5.47958 1.6742 10.0456 1.6742C12.2562 1.6742 14.3345 2.53253 15.897 4.08919C16.6676 4.85301 17.2785 5.76133 17.6941 6.7616C18.1098 7.76188 18.322 8.83425 18.3186 9.91668C18.3169 14.4583 14.6041 18.1542 10.0423 18.1542ZM17.086 2.9067C16.1634 1.98247 15.0657 1.24965 13.8564 0.7507C12.6472 0.251754 11.3505 -0.00339687 10.0414 3.41479e-05C4.55347 3.41479e-05 0.085409 4.44586 0.0837344 9.91002C0.0811914 11.649 0.539563 13.3578 1.4126 14.8642L0 20L5.27861 18.6217C6.73884 19.4134 8.37519 19.8283 10.0381 19.8283H10.0423C15.5302 19.8283 19.9983 15.3825 20 9.91752C20.004 8.61525 19.7485 7.32511 19.2484 6.12172C18.7482 4.91833 18.0132 3.82559 17.086 2.9067Z" fill="black"></path>
  </symbol>
  <symbol fill="none" xmlns="http://www.w3.org/2000/svg" viewBox="0 0 110 110" id="coding-icon">
    <path d="M22.3404 3.43518C19.5136 3.43518 17.1875 5.76131 17.1875 8.58814V63.5882C17.1875 65.8821 20.6283 65.8821 20.6283 63.5882V20.6295H89.3683V63.5882C89.3163 65.9318 92.8584 65.9318 92.8058 63.5882V8.58814C92.8058 5.76131 90.4831 3.43518 87.6562 3.43518H22.3404ZM22.3404 6.8761H87.6562C88.6382 6.8761 89.3683 7.60619 89.3683 8.58814V17.1886H20.6283V8.58814C20.6283 7.60619 21.3585 6.8761 22.3404 6.8761ZM25.7812 10.3103C24.832 10.3103 24.0625 11.0799 24.0625 12.0291C24.0625 12.9783 24.832 13.7476 25.7812 13.7476C26.7304 13.7476 27.5 12.9783 27.5 12.0291C27.5 11.0799 26.7304 10.3103 25.7812 10.3103ZM32.6562 10.3103C31.707 10.3103 30.9375 11.0799 30.9375 12.0291C30.9375 12.9783 31.707 13.7476 32.6562 13.7476C33.6055 13.7476 34.375 12.9783 34.375 12.0291C34.375 11.0799 33.6055 10.3103 32.6562 10.3103ZM39.5312 10.3103C38.582 10.3103 37.8125 11.0799 37.8125 12.0291C37.8125 12.9783 38.582 13.7476 39.5312 13.7476C40.4805 13.7476 41.25 12.9783 41.25 12.0291C41.25 11.0799 40.4805 10.3103 39.5312 10.3103ZM63.5065 10.3137C61.1859 10.4715 61.3443 13.8081 63.5871 13.7512H84.2187C86.4601 13.6992 86.4601 10.3634 84.2187 10.3137H63.5065ZM8.60047 13.7512C5.77364 13.7512 3.4375 16.074 3.4375 18.9008V80.7789C3.4375 83.6058 5.77364 85.9319 8.60047 85.9319H101.41C104.236 85.9319 106.562 83.6058 106.562 80.7789V18.9006C106.562 16.0738 104.236 13.751 101.41 13.751H97.9721C95.629 13.699 95.629 17.2405 97.9721 17.1886H101.41C102.392 17.1886 103.122 17.9187 103.122 18.9006V68.7511H6.875V18.9006C6.875 17.9187 7.61858 17.1886 8.60047 17.1886H12.0245C14.3676 17.2405 14.3676 13.699 12.0245 13.751L8.60047 13.7512ZM60.1764 27.4709C59.4208 27.4658 58.7506 27.955 58.5248 28.6762L48.2089 59.6102C47.4816 61.7856 50.7445 62.8765 51.4719 60.7012L61.7877 29.757C62.1768 28.6441 61.3553 27.4787 60.1764 27.4709ZM67.6489 37.4075L76.3769 44.6886L67.6489 51.9598C65.784 53.4198 68.0868 56.1748 69.8544 54.5984L80.1568 46.0079C80.9795 45.3208 80.9795 44.0566 80.1568 43.3695L69.8544 34.7657C69.5464 34.5019 69.1553 34.3557 68.6627 34.3563C67.038 34.4986 66.449 36.4368 67.6489 37.4079V37.4075ZM41.2064 34.3595C40.8193 34.3725 40.4478 34.5154 40.1523 34.7655L29.8398 43.3693C29.0171 44.0564 29.0171 45.3206 29.8398 46.0077L40.1523 54.5982C41.9259 56.2501 44.2945 53.4033 42.3477 51.9596L33.6197 44.6884L42.3477 37.4073C43.6177 36.3675 42.847 34.3093 41.2064 34.3593V34.3595ZM6.875 72.192H103.122V80.7789C103.122 81.7609 102.392 82.491 101.41 82.491H8.60047C7.61858 82.491 6.875 81.7609 6.875 80.7789V72.192ZM58.5315 75.6262L51.4786 75.6295C49.2877 75.8913 49.4349 78.995 51.5592 79.0536H58.4375C60.7979 79.2621 60.9944 75.6735 58.5315 75.6262H58.5315ZM45.3589 89.235C44.669 89.222 44.0372 89.6196 43.7543 90.2489C42.9266 92.0241 41.4438 94.0971 38.8834 96.2444H36.0937C33.2669 96.2444 30.9442 98.584 30.9442 101.411V104.835C30.9408 105.784 31.707 106.556 32.6562 106.56H77.3404C78.2948 106.564 79.0695 105.789 79.0658 104.835V101.411C79.0658 98.584 76.7297 96.2444 73.9029 96.2444H71.1166C68.5565 94.0972 67.0733 92.024 66.2457 90.2489C65.9547 89.6031 65.2978 89.2022 64.5908 89.2384C63.3629 89.3034 62.596 90.5953 63.1305 91.7026C63.8005 93.1396 64.8236 94.6811 66.2021 96.2444H43.7979C45.1763 94.6811 46.1994 93.1396 46.8695 91.7026C47.4152 90.5754 46.611 89.2617 45.3589 89.235ZM36.0937 99.6853H73.9029C74.8847 99.6853 75.6283 100.429 75.6283 101.411V103.123H34.3817V101.411C34.3817 100.429 35.1118 99.6853 36.0937 99.6853Z" fill="#545151"></path>
  </symbol>
  <symbol fill="none" xmlns="http://www.w3.org/2000/svg" viewBox="0 0 50 50" id="Instagram">
    <path fill-rule="evenodd" clip-rule="evenodd" d="M14.6932 0.15C17.3591 0.0272727 18.2091 0 25 0C31.7909 0 32.6409 0.0295454 35.3045 0.15C37.9682 0.270454 39.7864 0.695455 41.3773 1.31136C43.0432 1.94091 44.5545 2.925 45.8045 4.19773C47.0773 5.44545 48.0591 6.95455 48.6864 8.62273C49.3045 10.2136 49.7273 12.0318 49.85 14.6909C49.9727 17.3614 50 18.2114 50 25C50 31.7909 49.9705 32.6409 49.85 35.3068C49.7295 37.9659 49.3045 39.7841 48.6864 41.375C48.0591 43.0434 47.0756 44.555 45.8045 45.8045C44.5545 47.0773 43.0432 48.0591 41.3773 48.6864C39.7864 49.3045 37.9682 49.7273 35.3091 49.85C32.6409 49.9727 31.7909 50 25 50C18.2091 50 17.3591 49.9705 14.6932 49.85C12.0341 49.7295 10.2159 49.3045 8.625 48.6864C6.95664 48.059 5.44505 47.0756 4.19545 45.8045C2.92359 44.5561 1.93935 43.0452 1.31136 41.3773C0.695455 39.7864 0.272727 37.9682 0.15 35.3091C0.0272727 32.6386 0 31.7886 0 25C0 18.2091 0.0295454 17.3591 0.15 14.6955C0.270454 12.0318 0.695455 10.2136 1.31136 8.62273C1.94028 6.95473 2.92527 5.44389 4.19773 4.19545C5.44555 2.92387 6.95562 1.93964 8.62273 1.31136C10.2136 0.695455 12.0318 0.272727 14.6909 0.15H14.6932ZM35.1023 4.65C32.4659 4.52955 31.675 4.50455 25 4.50455C18.325 4.50455 17.5341 4.52955 14.8977 4.65C12.4591 4.76136 11.1364 5.16818 10.2545 5.51136C9.08864 5.96591 8.25455 6.50455 7.37955 7.37955C6.5501 8.18648 5.91177 9.16882 5.51136 10.2545C5.16818 11.1364 4.76136 12.4591 4.65 14.8977C4.52955 17.5341 4.50455 18.325 4.50455 25C4.50455 31.675 4.52955 32.4659 4.65 35.1023C4.76136 37.5409 5.16818 38.8636 5.51136 39.7455C5.91136 40.8295 6.55 41.8136 7.37955 42.6205C8.18636 43.45 9.17045 44.0886 10.2545 44.4886C11.1364 44.8318 12.4591 45.2386 14.8977 45.35C17.5341 45.4705 18.3227 45.4955 25 45.4955C31.6773 45.4955 32.4659 45.4705 35.1023 45.35C37.5409 45.2386 38.8636 44.8318 39.7455 44.4886C40.9114 44.0341 41.7455 43.4955 42.6205 42.6205C43.45 41.8136 44.0886 40.8295 44.4886 39.7455C44.8318 38.8636 45.2386 37.5409 45.35 35.1023C45.4705 32.4659 45.4955 31.675 45.4955 25C45.4955 18.325 45.4705 17.5341 45.35 14.8977C45.2386 12.4591 44.8318 11.1364 44.4886 10.2545C44.0341 9.08864 43.4955 8.25455 42.6205 7.37955C41.8135 6.55016 40.8311 5.91184 39.7455 5.51136C38.8636 5.16818 37.5409 4.76136 35.1023 4.65ZM21.8068 32.7068C23.5901 33.4492 25.5759 33.5494 27.4248 32.9903C29.2738 32.4312 30.8713 31.2475 31.9446 29.6415C33.0178 28.0354 33.5001 26.1065 33.3092 24.1843C33.1183 22.2621 32.2659 20.4658 30.8977 19.1023C30.0255 18.2306 28.9709 17.5632 27.8098 17.1481C26.6488 16.7329 25.4101 16.5804 24.1829 16.7014C22.9558 16.8224 21.7708 17.214 20.7132 17.848C19.6556 18.482 18.7517 19.3426 18.0666 20.3678C17.3815 21.3931 16.9322 22.5575 16.7512 23.7772C16.5701 24.9969 16.6617 26.2416 17.0194 27.4216C17.3771 28.6017 17.992 29.6877 18.8198 30.6016C19.6476 31.5155 20.6678 32.2345 21.8068 32.7068ZM15.9136 15.9136C17.1069 14.7204 18.5235 13.7739 20.0825 13.1281C21.6415 12.4823 23.3125 12.1499 25 12.1499C26.6875 12.1499 28.3585 12.4823 29.9175 13.1281C31.4765 13.7739 32.8931 14.7204 34.0864 15.9136C35.2796 17.1069 36.2261 18.5235 36.8719 20.0825C37.5177 21.6415 37.8501 23.3125 37.8501 25C37.8501 26.6875 37.5177 28.3585 36.8719 29.9175C36.2261 31.4765 35.2796 32.8931 34.0864 34.0864C31.6765 36.4962 28.408 37.8501 25 37.8501C21.592 37.8501 18.3235 36.4962 15.9136 34.0864C13.5038 31.6765 12.1499 28.408 12.1499 25C12.1499 21.592 13.5038 18.3235 15.9136 15.9136ZM40.7 14.0636C40.9957 13.7847 41.2324 13.4493 41.3961 13.0772C41.5599 12.7052 41.6473 12.304 41.6532 11.8976C41.6591 11.4911 41.5835 11.0876 41.4306 10.7109C41.2778 10.3343 41.051 9.99207 40.7635 9.70463C40.4761 9.4172 40.1339 9.19036 39.7573 9.03754C39.3806 8.88472 38.9771 8.80904 38.5706 8.81496C38.1642 8.82089 37.763 8.9083 37.391 9.07204C37.0189 9.23577 36.6835 9.47249 36.4045 9.76818C35.8621 10.3432 35.5651 11.1071 35.5766 11.8976C35.5881 12.688 35.9073 13.4429 36.4663 14.0019C37.0253 14.5609 37.7801 14.8801 38.5706 14.8916C39.3611 14.9031 40.1249 14.6061 40.7 14.0636Z" fill="black"></path>
  </symbol>
  <symbol fill="none" xmlns="http://www.w3.org/2000/svg" viewBox="0 0 50 50" id="Linkedin">
    <path d="M37.5 27.8247V37.0672H32.1425V28.4422C32.1425 26.2772 31.3675 24.7997 29.4275 24.7997C27.9475 24.7997 27.065 25.7947 26.6775 26.7597C26.5375 27.1047 26.5 27.5847 26.5 28.0647V37.0672H21.14C21.14 37.0672 21.2125 22.4622 21.14 20.9497H26.5V23.2322L26.465 23.2847H26.5V23.2347C27.2125 22.1347 28.4825 20.5697 31.33 20.5697C34.855 20.5697 37.5 22.8747 37.5 27.8247ZM15.5325 13.1772C13.7 13.1772 12.5 14.3822 12.5 15.9622C12.5 17.5122 13.665 18.7497 15.4625 18.7497H15.4975C17.3675 18.7497 18.53 17.5097 18.53 15.9622C18.495 14.3822 17.3675 13.1772 15.5325 13.1772ZM12.8175 37.0672H18.1775V20.9497H12.8175V37.0672Z" fill="black"></path>
    <path d="M10 5C8.67392 5 7.40215 5.52678 6.46447 6.46447C5.52678 7.40215 5 8.67392 5 10V40C5 41.3261 5.52678 42.5979 6.46447 43.5355C7.40215 44.4732 8.67392 45 10 45H40C41.3261 45 42.5979 44.4732 43.5355 43.5355C44.4732 42.5979 45 41.3261 45 40V10C45 8.67392 44.4732 7.40215 43.5355 6.46447C42.5979 5.52678 41.3261 5 40 5H10ZM10 0H40C42.6522 0 45.1957 1.05357 47.0711 2.92893C48.9464 4.8043 50 7.34784 50 10V40C50 42.6522 48.9464 45.1957 47.0711 47.0711C45.1957 48.9464 42.6522 50 40 50H10C7.34784 50 4.8043 48.9464 2.92893 47.0711C1.05357 45.1957 0 42.6522 0 40V10C0 7.34784 1.05357 4.8043 2.92893 2.92893C4.8043 1.05357 7.34784 0 10 0V0Z" fill="black"></path>
  </symbol>
  <symbol xmlns="http://www.w3.org/2000/svg" viewBox="0 -53 384 384" id="menu">
    <path d="m368 154.667969h-352c-8.832031 0-16-7.167969-16-16s7.167969-16 16-16h352c8.832031 0 16 7.167969 16 16s-7.167969 16-16 16zm0 0"></path>
    <path d="m368 32h-352c-8.832031 0-16-7.167969-16-16s7.167969-16 16-16h352c8.832031 0 16 7.167969 16 16s-7.167969 16-16 16zm0 0"></path>
    <path d="m368 277.332031h-352c-8.832031 0-16-7.167969-16-16s7.167969-16 16-16h352c8.832031 0 16 7.167969 16 16s-7.167969 16-16 16zm0 0"></path>
  </symbol>
  <symbol xmlns="http://www.w3.org/2000/svg" viewBox="0 0 329.26933 329" id="menu-close">
    <path d="m194.800781 164.769531 128.210938-128.214843c8.34375-8.339844 8.34375-21.824219 0-30.164063-8.339844-8.339844-21.824219-8.339844-30.164063 0l-128.214844 128.214844-128.210937-128.214844c-8.34375-8.339844-21.824219-8.339844-30.164063 0-8.34375 8.339844-8.34375 21.824219 0 30.164063l128.210938 128.214843-128.210938 128.214844c-8.34375 8.339844-8.34375 21.824219 0 30.164063 4.15625 4.160156 9.621094 6.25 15.082032 6.25 5.460937 0 10.921875-2.089844 15.082031-6.25l128.210937-128.214844 128.214844 128.214844c4.160156 4.160156 9.621094 6.25 15.082032 6.25 5.460937 0 10.921874-2.089844 15.082031-6.25 8.34375-8.339844 8.34375-21.824219 0-30.164063zm0 0"></path>
  </symbol>
  <symbol fill="none" xmlns="http://www.w3.org/2000/svg" viewBox="0 0 124 23" id="star-rating">
    <path d="M12 0L14.5819 7.9463H22.9371L16.1776 12.8574L18.7595 20.8037L12 15.8926L5.24047 20.8037L7.82238 12.8574L1.06285 7.9463H9.41809L12 0Z" fill="#FAC63E"></path>
    <path d="M37 0L39.5819 7.9463H47.9371L41.1776 12.8574L43.7595 20.8037L37 15.8926L30.2405 20.8037L32.8224 12.8574L26.0628 7.9463H34.4181L37 0Z" fill="#FAC63E"></path>
    <path d="M62 0L64.5819 7.9463H72.9371L66.1776 12.8574L68.7595 20.8037L62 15.8926L55.2405 20.8037L57.8224 12.8574L51.0628 7.9463H59.4181L62 0Z" fill="#FAC63E"></path>
    <path d="M87 0L89.5819 7.9463H97.9371L91.1776 12.8574L93.7595 20.8037L87 15.8926L80.2405 20.8037L82.8224 12.8574L76.0628 7.9463H84.4181L87 0Z" fill="#FAC63E"></path>
    <path d="M112 0L114.582 7.9463H122.937L116.178 12.8574L118.76 20.8037L112 15.8926L105.24 20.8037L107.822 12.8574L101.063 7.9463H109.418L112 0Z" fill="#FAC63E"></path>
  </symbol>
  <symbol fill="none" xmlns="http://www.w3.org/2000/svg" viewBox="0 0 110 110" id="UI-icon">
    <g clip-path="url(#clip0_67_1752)">
      <path d="M28.5917 8.04074C30.6654 8.04074 30.6688 4.81808 28.5917 4.81808C26.518 4.81808 26.5146 8.04074 28.5917 8.04074Z" fill="#545151"></path>
      <path d="M33.831 8.04074C35.9046 8.04074 35.9081 4.81808 33.831 4.81808C31.7573 4.81808 31.7538 8.04074 33.831 8.04074Z" fill="#545151"></path>
      <path d="M39.0707 8.04074C41.1444 8.04074 41.1478 4.81808 39.0707 4.81808C36.997 4.81808 36.9936 8.04074 39.0707 8.04074Z" fill="#545151"></path>
      <path d="M74.155 51.9217H58.4538C56.3754 51.9217 56.3754 55.1444 58.4538 55.1444H74.155C76.2336 55.1444 76.2336 51.9217 74.155 51.9217Z" fill="#545151"></path>
      <path d="M58.4538 46.8372H74.155C76.2336 46.8372 76.2336 43.6146 74.155 43.6146H58.4538C56.3754 43.6146 56.3754 46.8372 58.4538 46.8372Z" fill="#545151"></path>
      <path d="M74.155 60.2289H58.4538C56.3754 60.2289 56.3754 63.4515 58.4538 63.4515H74.155C76.2336 63.4515 76.2336 60.2289 74.155 60.2289Z" fill="#545151"></path>
      <path d="M51.674 41.7611C51.605 40.9391 50.8941 40.2862 50.0695 40.2862H33.3936C32.5181 40.2862 31.7822 41.0212 31.7822 41.8975V65.1685C31.7822 66.044 32.5144 66.7799 33.3942 66.7799H50.0691C50.9487 66.7799 51.6811 66.0442 51.6811 65.1685V41.8975C51.6785 41.852 51.6763 41.8066 51.674 41.7611ZM35.0049 46.9126L39.7491 53.533L35.0049 60.1534V46.9126ZM36.5307 43.5089H46.9326L41.7316 50.7665L36.5307 43.5089ZM41.7314 56.2996L46.9324 63.5572H36.5305L41.7314 56.2996ZM43.714 53.533L48.4582 46.9126V60.1537L43.714 53.533Z" fill="#545151"></path>
      <path d="M109.79 82.5728L107.548 78.627V30.3838C107.548 26.4855 104.373 23.3142 100.469 23.3142H86.1218V3.7965C86.1216 1.70307 84.4188 0 82.3253 0H25.2229C23.1294 0 21.4264 1.70307 21.4264 3.7965V23.3142H7.0791C3.17561 23.3144 0 26.4857 0 30.3838V82.1625C0 86.0608 3.17561 89.2321 7.0791 89.2321H43.2377L42.0752 100.393H39.7416C35.3328 100.393 31.746 103.98 31.746 108.389C31.746 109.279 32.4672 110 33.3573 110H74.1909C75.081 110 75.8022 109.279 75.8022 108.389C75.8022 103.98 72.2156 100.393 67.8068 100.393H65.4298L63.928 89.2321H74.9222L78.439 93.3541C77.4583 94.0932 76.8204 95.2636 76.8204 96.5834V106.025C76.8204 108.217 78.6034 110 80.795 110H99.6319C101.823 110 103.606 108.217 103.606 106.025V96.5834C103.606 95.2636 102.968 94.0932 101.988 93.3541L109.615 84.4145C110.055 83.8986 110.125 83.1624 109.79 82.5728ZM100.469 26.5371C102.595 26.5371 104.326 28.2629 104.326 30.3841V72.9545L91.6143 50.5798C91.0151 49.5249 89.416 49.517 88.8121 50.5798L86.1218 55.3154V26.5371H100.469ZM90.2131 77.935C91.5402 77.935 92.6196 79.0165 92.6196 80.3458C92.6196 81.675 91.5402 82.7565 90.2131 82.7565C88.886 82.7565 87.8064 81.675 87.8064 80.3458C87.8064 79.0165 88.8862 77.935 90.2131 77.935ZM76.8277 71.6751H24.6492V35.6834H82.8992V60.9879L76.8277 71.6751ZM82.899 32.4607H24.6492V12.9291H82.8992V32.4607H82.899ZM25.2229 3.22266H82.3251C82.6416 3.22266 82.899 3.48004 82.899 3.7965V9.70621H24.6492V3.7965C24.6492 3.48004 24.9066 3.22266 25.2229 3.22266ZM7.0791 26.5371H21.4264V71.6753H3.22266V30.3838C3.22266 28.2627 4.95279 26.5371 7.0791 26.5371ZM72.2997 106.777H35.2483C35.9107 104.936 37.6748 103.616 39.7414 103.616H43.519H43.5336H64.014C64.0155 103.616 64.017 103.616 64.0185 103.616C64.0196 103.616 64.0206 103.616 64.0217 103.616H67.8066C69.8732 103.616 71.6373 104.936 72.2997 106.777ZM62.1781 100.393H45.3155L46.478 89.2321H60.6762L62.1781 100.393ZM62.0853 86.0095H45.0259H7.0791C4.95279 86.0095 3.22266 84.2836 3.22266 82.1625V74.8978H23.0377H74.9968L70.6365 82.5728C70.3016 83.1624 70.3719 83.8986 70.8116 84.4145L72.1725 86.0095H62.0853ZM100.383 106.025C100.383 106.44 100.046 106.777 99.6314 106.777H80.7946C80.3799 106.777 80.0426 106.44 80.0426 106.025V96.5834C80.0426 95.9237 80.6998 95.6908 81.2348 95.7599H99.1912C99.7262 95.6905 100.383 95.9234 100.383 96.5834V106.025ZM98.4479 92.5375H81.9781L73.9967 83.1823L88.6018 57.4739V74.9487C86.2806 75.6439 84.5838 77.7996 84.5838 80.3458C84.5838 83.452 87.109 85.9792 90.2131 85.9792C93.317 85.9792 95.8422 83.452 95.8422 80.3458C95.8422 77.7999 94.1454 75.6441 91.8244 74.9489V57.4741L106.43 83.1826L98.4479 92.5375Z" fill="#545151"></path>
    </g>
    <defs>
      <clipPath id="clip0_67_1752">
        <rect width="110" height="110" fill="white"></rect>
      </clipPath>
    </defs>
  </symbol>
  <symbol fill="none" xmlns="http://www.w3.org/2000/svg" viewBox="0 0 110 110" id="web-design icon">
    <path d="M96.0726 14.3049H94.7674C97.2553 10.2545 96.3366 4.8167 92.3438 1.85427C88.0417 -1.33738 81.928 -0.310019 78.9256 4.17669L72.1483 14.3051H13.9274C9.14186 14.3051 5.24854 18.1984 5.24854 22.984V78.4714C5.24854 83.257 9.14186 87.1503 13.9274 87.1503H47.6387L45.0916 97.8487H39.5941C36.0112 97.8487 33.0963 100.763 33.0963 104.346V105.703H26.3191C25.1326 105.703 24.1707 106.665 24.1707 107.851C24.1707 109.038 25.1326 110 26.3191 110H83.6811C84.8676 110 85.8295 109.038 85.8295 107.851C85.8295 106.665 84.8676 105.703 83.6811 105.703H76.904V104.346C76.904 100.763 73.989 97.8487 70.4062 97.8487H64.9086L62.3615 87.1503H96.0728C100.858 87.1503 104.752 83.257 104.752 78.4714V66.2621V22.9837C104.752 18.1982 100.858 14.3049 96.0726 14.3049ZM65.29 52.0735C61.9309 54.4249 55.6381 51.2287 49.6286 54.4354C48.1623 46.8183 49.0868 39.6544 56.7189 38.0732C57.7053 37.8676 58.7672 37.7746 59.6713 37.7926C62.2545 39.7092 64.8674 41.6477 67.4433 43.5591C68.571 46.8393 68.1478 50.0731 65.29 52.0735ZM67.4551 29.0452L73.5366 33.5573L68.8597 39.2593C66.9343 37.8309 65.2792 36.6029 63.3538 35.1742C63.7536 34.5767 67.0897 29.5911 67.4551 29.0452ZM82.4969 6.56635C84.1241 4.13415 87.4427 3.56826 89.7836 5.30524C92.1254 7.04244 92.5447 10.3823 90.6891 12.6448C87.3967 16.6587 79.5693 26.202 76.2644 30.2314L69.8471 25.4701L82.4969 6.56635ZM72.607 104.346V105.703H37.393V104.346C37.393 103.133 38.3804 102.145 39.5941 102.145H70.4059C71.6196 102.145 72.607 103.133 72.607 104.346ZM60.4915 97.8487H49.5085L52.0556 87.1503H57.9444L60.4915 97.8487ZM100.455 78.4714C100.455 80.8877 98.4891 82.8535 96.0728 82.8535C92.6625 82.8535 17.7621 82.8535 13.9276 82.8535C11.5113 82.8535 9.54554 80.8877 9.54554 78.4714V68.4105H15.6848C16.8714 68.4105 17.8332 67.4484 17.8332 66.2621C17.8332 65.0758 16.8714 64.1137 15.6848 64.1137H9.54511V22.9837C9.54511 20.5674 11.5109 18.6017 13.9272 18.6017H69.2731C67.2149 21.6775 61.2104 30.6509 59.3084 33.4931C55.0982 33.5311 50.8948 34.9978 48.1432 38.2101C44.3987 42.581 43.7409 49.449 46.1879 58.6231C46.6062 60.1918 48.5636 60.7538 49.748 59.6225C55.3031 54.3144 62.2218 60.1044 68.4176 55.0896C72.1996 52.0281 73.0947 47.1611 71.6685 42.61C73.5963 40.2596 89.428 20.9576 91.3603 18.6017H96.0724C98.4887 18.6017 100.454 20.5674 100.454 22.9837V64.1135H32.8715C31.685 64.1135 30.7231 65.0755 30.7231 66.2619C30.7231 67.4482 31.685 68.4103 32.8715 68.4103H100.455V78.4714Z" fill="#545151"></path>
    <path d="M23.8636 64.1552C22.8293 64.3666 22.1362 65.2605 22.1362 66.263C22.1362 67.6069 23.3649 68.636 24.7036 68.3685C25.8932 68.127 26.6179 66.9806 26.3901 65.8419C26.151 64.6667 25.0111 63.9242 23.8636 64.1552Z" fill="#545151"></path>
  </symbol>
</svg>