<svg width="124" height="23" viewBox="0 0 124 23" fill="none" xmlns="http://www.w3.org/2000/svg">
<path d="M12 0L14.5819 7.9463H22.9371L16.1776 12.8574L18.7595 20.8037L12 15.8926L5.24047 20.8037L7.82238 12.8574L1.06285 7.9463H9.41809L12 0Z" fill="#FAC63E"/>
<path d="M37 0L39.5819 7.9463H47.9371L41.1776 12.8574L43.7595 20.8037L37 15.8926L30.2405 20.8037L32.8224 12.8574L26.0628 7.9463H34.4181L37 0Z" fill="#FAC63E"/>
<path d="M62 0L64.5819 7.9463H72.9371L66.1776 12.8574L68.7595 20.8037L62 15.8926L55.2405 20.8037L57.8224 12.8574L51.0628 7.9463H59.4181L62 0Z" fill="#FAC63E"/>
<path d="M87 0L89.5819 7.9463H97.9371L91.1776 12.8574L93.7595 20.8037L87 15.8926L80.2405 20.8037L82.8224 12.8574L76.0628 7.9463H84.4181L87 0Z" fill="#FAC63E"/>
<path d="M112 0L114.582 7.9463H122.937L116.178 12.8574L118.76 20.8037L112 15.8926L105.24 20.8037L107.822 12.8574L101.063 7.9463H109.418L112 0Z" fill="#FAC63E"/>
</svg>
