<svg width="110" height="110" viewBox="0 0 110 110" fill="none" xmlns="http://www.w3.org/2000/svg">
<g clip-path="url(#clip0_67_1752)">
<path d="M28.5917 8.04074C30.6654 8.04074 30.6688 4.81808 28.5917 4.81808C26.518 4.81808 26.5146 8.04074 28.5917 8.04074Z" fill="#545151"/>
<path d="M33.831 8.04074C35.9046 8.04074 35.9081 4.81808 33.831 4.81808C31.7573 4.81808 31.7538 8.04074 33.831 8.04074Z" fill="#545151"/>
<path d="M39.0707 8.04074C41.1444 8.04074 41.1478 4.81808 39.0707 4.81808C36.997 4.81808 36.9936 8.04074 39.0707 8.04074Z" fill="#545151"/>
<path d="M74.155 51.9217H58.4538C56.3754 51.9217 56.3754 55.1444 58.4538 55.1444H74.155C76.2336 55.1444 76.2336 51.9217 74.155 51.9217Z" fill="#545151"/>
<path d="M58.4538 46.8372H74.155C76.2336 46.8372 76.2336 43.6146 74.155 43.6146H58.4538C56.3754 43.6146 56.3754 46.8372 58.4538 46.8372Z" fill="#545151"/>
<path d="M74.155 60.2289H58.4538C56.3754 60.2289 56.3754 63.4515 58.4538 63.4515H74.155C76.2336 63.4515 76.2336 60.2289 74.155 60.2289Z" fill="#545151"/>
<path d="M51.674 41.7611C51.605 40.9391 50.8941 40.2862 50.0695 40.2862H33.3936C32.5181 40.2862 31.7822 41.0212 31.7822 41.8975V65.1685C31.7822 66.044 32.5144 66.7799 33.3942 66.7799H50.0691C50.9487 66.7799 51.6811 66.0442 51.6811 65.1685V41.8975C51.6785 41.852 51.6763 41.8066 51.674 41.7611ZM35.0049 46.9126L39.7491 53.533L35.0049 60.1534V46.9126ZM36.5307 43.5089H46.9326L41.7316 50.7665L36.5307 43.5089ZM41.7314 56.2996L46.9324 63.5572H36.5305L41.7314 56.2996ZM43.714 53.533L48.4582 46.9126V60.1537L43.714 53.533Z" fill="#545151"/>
<path d="M109.79 82.5728L107.548 78.627V30.3838C107.548 26.4855 104.373 23.3142 100.469 23.3142H86.1218V3.7965C86.1216 1.70307 84.4188 0 82.3253 0H25.2229C23.1294 0 21.4264 1.70307 21.4264 3.7965V23.3142H7.0791C3.17561 23.3144 0 26.4857 0 30.3838V82.1625C0 86.0608 3.17561 89.2321 7.0791 89.2321H43.2377L42.0752 100.393H39.7416C35.3328 100.393 31.746 103.98 31.746 108.389C31.746 109.279 32.4672 110 33.3573 110H74.1909C75.081 110 75.8022 109.279 75.8022 108.389C75.8022 103.98 72.2156 100.393 67.8068 100.393H65.4298L63.928 89.2321H74.9222L78.439 93.3541C77.4583 94.0932 76.8204 95.2636 76.8204 96.5834V106.025C76.8204 108.217 78.6034 110 80.795 110H99.6319C101.823 110 103.606 108.217 103.606 106.025V96.5834C103.606 95.2636 102.968 94.0932 101.988 93.3541L109.615 84.4145C110.055 83.8986 110.125 83.1624 109.79 82.5728ZM100.469 26.5371C102.595 26.5371 104.326 28.2629 104.326 30.3841V72.9545L91.6143 50.5798C91.0151 49.5249 89.416 49.517 88.8121 50.5798L86.1218 55.3154V26.5371H100.469ZM90.2131 77.935C91.5402 77.935 92.6196 79.0165 92.6196 80.3458C92.6196 81.675 91.5402 82.7565 90.2131 82.7565C88.886 82.7565 87.8064 81.675 87.8064 80.3458C87.8064 79.0165 88.8862 77.935 90.2131 77.935ZM76.8277 71.6751H24.6492V35.6834H82.8992V60.9879L76.8277 71.6751ZM82.899 32.4607H24.6492V12.9291H82.8992V32.4607H82.899ZM25.2229 3.22266H82.3251C82.6416 3.22266 82.899 3.48004 82.899 3.7965V9.70621H24.6492V3.7965C24.6492 3.48004 24.9066 3.22266 25.2229 3.22266ZM7.0791 26.5371H21.4264V71.6753H3.22266V30.3838C3.22266 28.2627 4.95279 26.5371 7.0791 26.5371ZM72.2997 106.777H35.2483C35.9107 104.936 37.6748 103.616 39.7414 103.616H43.519H43.5336H64.014C64.0155 103.616 64.017 103.616 64.0185 103.616C64.0196 103.616 64.0206 103.616 64.0217 103.616H67.8066C69.8732 103.616 71.6373 104.936 72.2997 106.777ZM62.1781 100.393H45.3155L46.478 89.2321H60.6762L62.1781 100.393ZM62.0853 86.0095H45.0259H7.0791C4.95279 86.0095 3.22266 84.2836 3.22266 82.1625V74.8978H23.0377H74.9968L70.6365 82.5728C70.3016 83.1624 70.3719 83.8986 70.8116 84.4145L72.1725 86.0095H62.0853ZM100.383 106.025C100.383 106.44 100.046 106.777 99.6314 106.777H80.7946C80.3799 106.777 80.0426 106.44 80.0426 106.025V96.5834C80.0426 95.9237 80.6998 95.6908 81.2348 95.7599H99.1912C99.7262 95.6905 100.383 95.9234 100.383 96.5834V106.025ZM98.4479 92.5375H81.9781L73.9967 83.1823L88.6018 57.4739V74.9487C86.2806 75.6439 84.5838 77.7996 84.5838 80.3458C84.5838 83.452 87.109 85.9792 90.2131 85.9792C93.317 85.9792 95.8422 83.452 95.8422 80.3458C95.8422 77.7999 94.1454 75.6441 91.8244 74.9489V57.4741L106.43 83.1826L98.4479 92.5375Z" fill="#545151"/>
</g>
<defs>
<clipPath id="clip0_67_1752">
<rect width="110" height="110" fill="white"/>
</clipPath>
</defs>
</svg>
