<svg width="110" height="110" viewBox="0 0 110 110" fill="none" xmlns="http://www.w3.org/2000/svg">
<path d="M96.0726 14.3049H94.7674C97.2553 10.2545 96.3366 4.8167 92.3438 1.85427C88.0417 -1.33738 81.928 -0.310019 78.9256 4.17669L72.1483 14.3051H13.9274C9.14186 14.3051 5.24854 18.1984 5.24854 22.984V78.4714C5.24854 83.257 9.14186 87.1503 13.9274 87.1503H47.6387L45.0916 97.8487H39.5941C36.0112 97.8487 33.0963 100.763 33.0963 104.346V105.703H26.3191C25.1326 105.703 24.1707 106.665 24.1707 107.851C24.1707 109.038 25.1326 110 26.3191 110H83.6811C84.8676 110 85.8295 109.038 85.8295 107.851C85.8295 106.665 84.8676 105.703 83.6811 105.703H76.904V104.346C76.904 100.763 73.989 97.8487 70.4062 97.8487H64.9086L62.3615 87.1503H96.0728C100.858 87.1503 104.752 83.257 104.752 78.4714V66.2621V22.9837C104.752 18.1982 100.858 14.3049 96.0726 14.3049ZM65.29 52.0735C61.9309 54.4249 55.6381 51.2287 49.6286 54.4354C48.1623 46.8183 49.0868 39.6544 56.7189 38.0732C57.7053 37.8676 58.7672 37.7746 59.6713 37.7926C62.2545 39.7092 64.8674 41.6477 67.4433 43.5591C68.571 46.8393 68.1478 50.0731 65.29 52.0735ZM67.4551 29.0452L73.5366 33.5573L68.8597 39.2593C66.9343 37.8309 65.2792 36.6029 63.3538 35.1742C63.7536 34.5767 67.0897 29.5911 67.4551 29.0452ZM82.4969 6.56635C84.1241 4.13415 87.4427 3.56826 89.7836 5.30524C92.1254 7.04244 92.5447 10.3823 90.6891 12.6448C87.3967 16.6587 79.5693 26.202 76.2644 30.2314L69.8471 25.4701L82.4969 6.56635ZM72.607 104.346V105.703H37.393V104.346C37.393 103.133 38.3804 102.145 39.5941 102.145H70.4059C71.6196 102.145 72.607 103.133 72.607 104.346ZM60.4915 97.8487H49.5085L52.0556 87.1503H57.9444L60.4915 97.8487ZM100.455 78.4714C100.455 80.8877 98.4891 82.8535 96.0728 82.8535C92.6625 82.8535 17.7621 82.8535 13.9276 82.8535C11.5113 82.8535 9.54554 80.8877 9.54554 78.4714V68.4105H15.6848C16.8714 68.4105 17.8332 67.4484 17.8332 66.2621C17.8332 65.0758 16.8714 64.1137 15.6848 64.1137H9.54511V22.9837C9.54511 20.5674 11.5109 18.6017 13.9272 18.6017H69.2731C67.2149 21.6775 61.2104 30.6509 59.3084 33.4931C55.0982 33.5311 50.8948 34.9978 48.1432 38.2101C44.3987 42.581 43.7409 49.449 46.1879 58.6231C46.6062 60.1918 48.5636 60.7538 49.748 59.6225C55.3031 54.3144 62.2218 60.1044 68.4176 55.0896C72.1996 52.0281 73.0947 47.1611 71.6685 42.61C73.5963 40.2596 89.428 20.9576 91.3603 18.6017H96.0724C98.4887 18.6017 100.454 20.5674 100.454 22.9837V64.1135H32.8715C31.685 64.1135 30.7231 65.0755 30.7231 66.2619C30.7231 67.4482 31.685 68.4103 32.8715 68.4103H100.455V78.4714Z" fill="#545151"/>
<path d="M23.8636 64.1552C22.8293 64.3666 22.1362 65.2605 22.1362 66.263C22.1362 67.6069 23.3649 68.636 24.7036 68.3685C25.8932 68.127 26.6179 66.9806 26.3901 65.8419C26.151 64.6667 25.0111 63.9242 23.8636 64.1552Z" fill="#545151"/>
</svg>
